<?xml version="1.0" encoding="UTF-8"?><svg id="Layer_1" xmlns="http://www.w3.org/2000/svg" viewBox="0 0 40 30.02"><path d="M39.94,6.47c-.45.1-.42-.27-.52-.52-.03,0-.06,0-.09,0-.26-.35.11-.32.26-.43,0,0,0,0,0,0,.17-.05.18-.07.12-.11-.26-.19-.32-.45-.3-.75-.08.02-.11.18-.19.12-.13-.1-.02-.2.05-.28.09-.1.16-.19.13-.34-.22.1-.27-.26-.48-.2-.16.19-.32.39-.51.55-.2.18-.83-.01-.95-.26-.04-.13-.18-.11-.27-.21-.12,0-.23-.07-.3-.2-.14-.26.16-.23.26-.34.07-.07.13-.15.2-.22,0-.06,0-.11,0-.17,0-.02,0-.05,0-.07-.01,0-.03,0-.05,0-.01,0-.03,0-.04,0-.15-.11-.38.19-.5-.1-.1-.26.05-.36.23-.49.11-.07-.22-.13-.06-.27.03-.02-.02-.07-.06-.06-.11,0-.12.09-.15.19-.09.33-.23.36-.5.13-.19.16.16.27.05.43-.03,0-.06,0-.08-.02-.18-.19-.36-.38-.54-.58-.01.1-.05.19-.12.24.06.22-.03.39-.33.51-.03.01,0,.13-.12.11-.02-.13-.03-.27-.15-.37-.03.04-.08.05-.12.07.06.01.12.04.13.11.03.18-.18.1-.32.13-.04-.03-.12-.01-.18-.01,0,.06,0,.11.03.18.01.03.03.07.02.09-.06.19-.05.21.14.25.04,0,.09.02.1.05.13.25.42.32.58.47.34.33.7.47,1.14.52.12.01.29,0,.26.2-.05.29.11.48.31.61.39.24-.05.39-.06.59,0,.08-.21.21-.38.18-.13-.03-.12-.11-.09-.21-.06-.09-.18-.14-.16-.28,0-.13-.02-.26-.03-.39-.02-.06-.03-.11-.05-.17-.25-.01-.55.14-.71-.2-.05-.06-.11-.12-.16-.17-.17-.2-.4-.33-.53-.57,0,0,0,0,0,0-.07.03-.15.02-.22-.01-.06-.02-.11-.04-.17-.06,0,0,0,0,0,0-.05.01-.11.03-.16.04-.23.24-.44.02-.66-.03-.13-.1-.21-.36-.44-.13.09.11.04.21.01.36-.08-.09-.13-.15-.18-.2-.11-.04-.2-.09-.27-.18-.36.01-.41-.26-.48-.52-.06-.18-.17-.29-.37-.29-.08.03-.06.17-.17.15-.19.15-.61-.1-.62.36,0,.04,0,.07,0,.11.21.16.03.3-.02.44.01.06.02.12.04.18.14-.12.29-.2.47-.11-.17.06-.31.23-.51.15-.17.11-.35.21-.55.08-.07,0-.15,0-.22,0-.11.04-.07.24-.23.21-.11-.02-.25-.1-.33-.06-.5.26-.75-.08-1.03-.39-.23.04-.21-.16-.26-.29-.13-.03-.23.03-.34.08,0,0,0,0,0,0-.05.02-.1.04-.16.06-.29.24-.65.36-.97.56-.13.11-.29.09-.44.09-.14.02.04.33-.18.24-.22-.08-.26.09-.38.17-.04.13-.17.15-.26.19-.17.09-.27,0-.3-.22,0,0,0,0,0,0h0s.03-.04.05-.06c-.13-.15-.21-.41-.44-.37-.14.02-.16.24-.16.4,0,.12.24.12.15.28.06.11.18.23-.06.28h0s-.08.07-.12.1c0,.05.02.11,0,.14-.04.06-.08,0-.12-.02-.06.05-.11.1-.17.15-.22.29.25.33.2.56-.04.14-.09.29-.13.43-.07.03-.12,0-.16-.05-.06.05-.12.1-.17.15.01.24-.29.14-.34.32.05.07.08.13,0,.2-.01.01-.06,0-.06,0,0-.05,0-.09,0-.14.02-.02.04-.04.07-.06,0,.04-.03.06-.07.06-.03-.02-.09-.05-.09-.04-.38.36-.43.35-.61-.14-.02-.06-.03-.12-.05-.18-.03-.04-.07-.08-.1-.12-.16.01-.28-.06-.38-.19-.34-.13-.23-.37-.15-.61-.07-.1-.23-.17-.1-.33-.19-.35-.21-.74-.28-1.12-.18-.12-.2-.38-.42-.46-.05-.05-.1-.08-.17-.06h0c.02.06.03.11.05.17.05.06.1.13.05.2-.04.06-.11.04-.17.01-.04.07-.03.19-.17.16-.02.16-.07.26-.26.19-.31-.11-.52-.36-.82-.5.07-.02.14-.04.22-.06h0c.03-.13-.11-.29.08-.38-.04-.03-.14-.04-.08-.12.06-.08.13-.04.19.02.17-.11.19.17.33.13,0,0,0,0,0,0,.03-.16.11-.27.21-.38-.04,0-.07-.02-.1-.06-.04-.05,0-.12.06-.14.03-.02.05-.02.08-.02-.07-.02-.15-.03-.18-.09-.1.11-.25.16-.37.23-.09.05-.21-.12-.06-.26,0-.03,0-.06,0-.09-.37.07-.41-.24-.57-.44-.1-.12-.34.06-.51.06-.25,0,.12-.43-.24-.4-.01,0-.03-.03-.05-.06.28,0,.41-.33.7-.28.09-.14.25.02.35-.08,0,0,.02,0,.03,0,0-.02-.02-.03,0-.05.04-.09.12-.11.2-.11-.01,0-.03-.01-.04-.02-.22.06-.38-.23-.44-.21-.69.26-.11-.25-.24-.36-.28.09-.44-.12-.62-.29,0,0,0,0,0,0-.04.22-.21.16-.35.17-.11.05-.22.19-.33,0-.07-.12-.11,0-.17.03-.06.05-.12.11-.18.16-.15.15-.34.15-.52.15-.1.02-.18-.04-.26-.08-.11.12.02.13.08.18-.02.09.06.21-.11.31,0-.14-.06-.24-.15-.31-.13.02-.14.21-.28.21-.13-.1.03-.37-.23-.39h0c-.02.07.04.2-.09.19-.11,0-.23-.02-.25-.18-.01-.12.04-.26-.09-.36-.02.22-.15.13-.26.08.1.45-.27.42-.52.52,0,.03,0,.06,0,.09-.35.26-.32-.11-.43-.26h0c-.05-.17-.07-.18-.11-.12-.19.26-.45.32-.75.3.02.08.18.11.12.19-.1.13-.2.02-.28-.05-.1-.09-.19-.16-.34-.13.11.23-.31.27-.19.51,0,.07.01.13.09.17,0,.03,0,.05.01.08.08.07.17.14.17.27.03.16.15.37-.18.34.02.21-.03.41-.09.61.15.23.09.43-.12.55-.26.14-.23-.16-.34-.26-.07-.07-.15-.13-.22-.2-.06,0-.11,0-.17,0-.46,0-.94.24-1.38-.08-.7-.12-1.28-.62-1.98-.75-.03,0-.07,0-.1,0-.1.02-.23.04-.33-.04-.09-.03-.17-.06-.26-.08-.24-.15-.51-.2-.77-.26-.32.06-.48-.18-.69-.34,0-.11,0-.23,0-.34.1-.13.03-.32.17-.43.4-.22.41-.25.17-.43-.17-.04-.23-.26-.43-.26-.02.01-.05.02-.08.02-.2.08-.32.02-.35-.2-.09-.12-.09-.2.07-.25,0,0,0,0,0,0,.04-.03.07-.06.11-.08.07-.11.14-.21.22-.32h33S0,0,0,0v30.02h0v-2.51c.04-.05.07-.11.11-.16,0,0,0,0,0,0,0,0,0,0,0,0,.03-.06.07-.1.15-.06.21.03.3.42.6.2.06-.08.07-.18.06-.28-.03-.04-.05-.08-.08-.12,0-.01,0-.03-.01-.04-.07,0-.14,0-.2,0-.13-.1-.32-.03-.43-.17-.08-.15-.14-.23-.18-.28v-3.08H0v-2.55s0-.05,0-.08v-2.71c.35-.03.35.29.44.52.03,0,.06,0,.09,0,.26.35-.11.32-.26.43,0,0,0,0,0,0-.17.05-.18.07-.12.11.26.19.32.45.3.75.08-.02.11-.18.19-.12.13.1.02.2-.05.28-.09.1-.16.19-.13.34.23-.11.27.31.51.19.07,0,.13-.01.17-.09.03,0,.05,0,.08-.01.07-.08.14-.17.27-.17.16-.03.37-.15.34.18.21-.02.41.03.61.09.23-.15.43-.09.55.12.14.26-.16.23-.26.34-.07.07-.13.15-.2.22,0,.06,0,.11,0,.17,0,.46.24.94-.08,1.38-.1.58-.46,1.07-.65,1.62.21.05.41.17.47.3.05.15.24.09.32.28.18.41-.09.57-.31.77h0c.04.07.01.2.16.17.01,0,.03,0,.04,0,.15.11.38-.19.5.1.1.26-.05.36-.23.49-.11.07.22.13.06.27-.03.02.02.07.06.06.11,0,.12-.09.15-.19.09-.33.23-.36.5-.13.19-.16-.16-.27-.05-.43.03,0,.06,0,.08.02.18.19.36.38.54.58.01-.1.05-.19.12-.24-.06-.22.03-.39.33-.51.03-.01,0-.13.12-.11.02.13.03.27.15.37.03-.04.08-.05.12-.07-.06-.01-.12-.04-.13-.11-.03-.18.18-.1.32-.13.04.03.12.01.18.01,0-.05,0-.11-.03-.18-.01-.03-.03-.07-.02-.09.06-.19.05-.21-.14-.25-.04,0-.09-.02-.1-.05-.13-.25-.41-.32-.58-.47-.34-.33-.7-.47-1.14-.52-.12-.01-.29,0-.26-.2.05-.29-.11-.48-.31-.61-.39-.24.05-.39.06-.59,0-.08.21-.21.38-.18.13.03.12.11.09.21.06.09.18.14.16.28,0,.13.02.26.03.39.02.06.03.11.05.17.25.01.55-.14.71.2.05.06.11.12.16.17.17.2.4.33.53.57,0,0,0,0,0,0,.07-.03.15-.02.22.01.06.02.11.04.17.06,0,0,0,0,0,0,.05-.01.11-.03.16-.04.23-.24.44-.02.66.03.13.1.21.36.44.13-.09-.11-.04-.21-.01-.36.08.09.13.15.18.2.11.04.2.09.27.18.36-.01.41.26.48.52.06.18.17.29.37.29.08-.03.06-.17.17-.15.19-.15.61.1.62-.36,0-.04,0-.07,0-.11-.21-.16-.03-.3.03-.44-.01-.06-.02-.12-.04-.18-.14.12-.29.2-.47.11.17-.06.31-.23.51-.15.17-.11.35-.21.55-.08.07,0,.15,0,.22,0,.11-.04.07-.24.23-.21.11.02.25.1.33.06.5-.26.75.08,1.03.39.23-.04.21.16.26.29.13.03.23-.03.34-.08,0,0,0,0,0,0,.05-.02.1-.04.16-.06.29-.24.65-.36.97-.56.13-.11.29-.09.44-.09.14-.02-.04-.33.18-.24.22.08.26-.09.38-.17.04-.13.17-.15.26-.19.17-.09.27,0,.3.22,0,0,0,0,0,0h0s-.03.04-.05.06c.13.15.21.41.44.37.14-.02.16-.24.16-.4,0-.12-.24-.12-.15-.28-.06-.11-.18-.23.06-.28h0s.08-.07.12-.1c0-.05-.02-.11,0-.14.04-.06.08,0,.12.02.06-.05.11-.1.17-.15.22-.29-.25-.33-.2-.56.04-.14.09-.29.13-.43.07-.03.12,0,.16.05.06-.05.12-.1.17-.15-.01-.24.29-.14.34-.32-.05-.07-.08-.13,0-.2.01-.01.06,0,.06,0,0,.05,0,.09,0,.14-.02.02-.04.04-.07.06,0-.04.03-.06.07-.06.03.02.09.05.09.04.38-.36.43-.35.61.14.02.06.03.12.05.18.03.04.07.08.1.12.16-.01.28.06.38.19.34.13.23.37.15.61.07.1.23.17.1.33.19.35.21.74.28,1.12.18.12.2.38.42.46.05.05.1.08.17.06h0c-.02-.06-.03-.11-.05-.17-.05-.06-.1-.13-.05-.2.04-.06.11-.04.17-.01.04-.07.03-.19.17-.16.02-.16.07-.26.26-.19.31.11.52.36.82.5-.07.02-.14.04-.22.06h0c-.03.13.11.29-.08.38.04.03.14.04.08.12-.06.08-.13.04-.19-.02-.17.11-.19-.17-.33-.13,0,0,0,0,0,0-.03.16-.11.27-.21.38.04,0,.07.02.1.06.04.05,0,.12-.06.14-.03.02-.05.02-.08.02.07.02.15.03.18.09.1-.11.25-.16.37-.23.09-.05.21.12.06.26,0,.03,0,.06,0,.09.37-.07.41.24.57.44.1.12.34-.06.51-.06.25,0-.12.43.24.4.01,0,.03.03.05.06-.28,0-.41.33-.7.28-.09.14-.25-.02-.35.08,0,0-.02,0-.03,0,0,.02.02.03,0,.05-.04.09-.12.11-.2.11.01,0,.03.01.04.02.22-.06.38.23.44.21.69-.26.11.25.24.36.28-.09.44.12.62.29h0c.04-.22.21-.16.35-.17.11-.05.22-.19.33,0,.07.12.11,0,.17-.03.06-.05.12-.11.18-.16.15-.15.34-.15.52-.15.1-.02.18.04.26.08.11-.12-.02-.13-.08-.18.02-.09-.06-.21.11-.31,0,.14.06.24.15.31.13-.02.14-.21.28-.21.13.1-.03.37.23.39h0c.02-.07-.04-.2.09-.19.11,0,.23.02.25.18.01.12-.04.26.09.36.02-.22.15-.13.26-.08-.1-.45.27-.42.52-.52,0-.03,0-.06,0-.09.35-.26.32.11.43.26h0c.05.17.07.18.11.12.19-.26.45-.32.75-.3-.02-.08-.18-.11-.12-.19.1-.13.2-.02.28.05.1.09.19.16.34.13-.11-.23.31-.27.19-.5,0-.07-.01-.13-.09-.17,0-.03,0-.05-.01-.08-.08-.07-.17-.14-.17-.27-.03-.16-.15-.37.18-.34-.02-.21.03-.41.09-.61-.15-.23-.09-.43.12-.55.26-.14.23.16.34.26.07.07.15.13.22.2.06,0,.11,0,.17,0,.46,0,.94-.24,1.38.08.7.12,1.28.62,1.98.75.03,0,.07,0,.1,0,.1-.02.23-.04.33.04.09.03.17.06.26.08.24.15.51.2.77.26.32-.06.48.18.69.34,0,.11,0,.23,0,.34-.1.13-.03.32-.17.43-.4.22-.41.25-.17.43.17.04.23.26.43.26.02-.01.05-.02.08-.02.2-.08.32-.02.35.2.09.12.09.2-.07.25,0,0,0,0,0,0-.04.03-.07.06-.11.08-.08.12-.16.24-.24.35.01.14-.11.28,0,.42.18.02.38-.24.53.06.1.04.22.13.31.11.47-.12.43.07.33.29h4.39s.09-.05.13-.11c-.07-.32.01-.44.33-.26.24-.07.4.13.61.18.05,0,.08.01.11.02.1-.15.33-.26.15-.5-.08-.06-.18-.07-.28-.06-.04.03-.08.06-.12.08-.25.12-.48.06-.71-.06-.33.02-.19-.33-.35-.44h0c-.04-.18,0-.37-.1-.54-.02-.02-.03-.03-.04-.05,0,0,0,0,0,0,0-.04,0-.08,0-.12-.08-.09-.15-.18-.23-.26-.09-.09-.17-.23-.32-.13-.13.09,0,.21.03.31.01.04.02.07.03.11.03.04.07.08.1.12,0,0,0,0,0,0,.01.27-.08.57.23.75.03.02-.06.06-.1.08.11.14.02.2-.08.3-.12.12-.21.15-.32.05-.22-.19-.45-.38-.64-.59-.18-.2.01-.83.26-.95.15-.05.09-.24.28-.32.41-.18.57.09.77.31h0c.07-.04.2-.01.17-.16,0-.01,0-.03,0-.04.11-.15-.19-.38.1-.5.26-.1.36.05.49.23.07.11.13-.22.27-.06.02.03.07-.02.06-.06,0-.11-.09-.12-.19-.15-.33-.09-.36-.23-.13-.5-.16-.19-.27.16-.43.05,0-.03,0-.06.02-.08.19-.18.38-.36.58-.54-.1-.01-.19-.05-.24-.12-.22.06-.39-.03-.51-.33-.01-.03-.13,0-.11-.12.13-.02.27-.03.37-.15-.04-.03-.05-.08-.07-.12-.01.06-.04.12-.11.13-.18.03-.1-.18-.13-.32.03-.04.01-.12.01-.18-.06,0-.11,0-.18.03-.03.01-.07.03-.09.02-.19-.06-.21-.05-.25.14,0,.04-.02.09-.05.1-.25.13-.32.42-.47.58-.33.34-.47.7-.52,1.14-.01.12,0,.29-.2.26-.29-.05-.48.11-.61.31-.24.39-.39-.05-.59-.06-.08,0-.21-.21-.18-.38.03-.13.11-.12.21-.09.09-.06.14-.18.28-.16.13,0,.26-.02.39-.03.06-.02.11-.03.17-.05.01-.25-.14-.55.2-.71.06-.05.12-.11.17-.16.2-.17.33-.4.57-.53,0,0,0,0,0,0-.03-.07-.02-.15.01-.22.02-.06.04-.11.06-.17,0,0,0,0,0,0-.01-.05-.03-.11-.04-.16-.24-.23-.02-.44.03-.66.1-.13.36-.21.13-.44-.11.09-.21.04-.36.01.09-.08.15-.13.2-.18.04-.11.09-.2.18-.27-.01-.36.26-.41.52-.48.18-.06.29-.17.29-.37-.03-.08-.17-.06-.15-.17-.15-.19.1-.61-.36-.62-.04,0-.07,0-.11,0-.16.21-.3.03-.44-.03-.06.01-.12.02-.18.04.12.14.2.29.11.47-.06-.17-.23-.31-.15-.51-.11-.17-.21-.35-.08-.55,0-.07,0-.15,0-.22-.04-.11-.24-.07-.21-.23.02-.11.1-.25.06-.33-.26-.5.08-.75.39-1.03-.04-.23.16-.21.29-.26.03-.13-.03-.23-.08-.34,0,0,0,0,0,0-.02-.05-.04-.1-.06-.16-.24-.29-.36-.65-.56-.97-.11-.13-.09-.29-.09-.44-.02-.14-.33.04-.24-.18.08-.22-.09-.26-.17-.38-.13-.04-.15-.17-.19-.26-.09-.17,0-.27.22-.3,0,0,0,0,0,0h0s.04.03.06.05c.15-.13.41-.21.37-.44-.02-.14-.24-.16-.4-.16-.12,0-.12.24-.28.15-.11.06-.23.18-.28-.06h0s-.07-.08-.1-.12c-.05,0-.11.02-.14,0-.06-.04,0-.08.02-.12-.05-.06-.1-.11-.15-.17-.29-.22-.33.25-.56.2l-.43-.13c-.03-.07,0-.12.05-.16-.05-.06-.1-.12-.15-.17-.24.01-.14-.29-.32-.34-.07.05-.13.08-.2,0-.01-.01,0-.06,0-.06.05,0,.09,0,.14,0,.02.02.04.04.06.07-.04,0-.06-.03-.06-.07.02-.03.05-.09.04-.09-.36-.38-.35-.43.14-.61.06-.02.12-.03.18-.05.04-.03.08-.07.12-.1-.01-.16.06-.28.19-.38.13-.34.37-.23.61-.15.1-.07.17-.23.33-.1.35-.19.74-.21,1.12-.28.12-.18.38-.2.46-.42.05-.05.08-.1.06-.17h0c-.06.02-.11.03-.17.05-.06.05-.13.1-.2.05-.06-.04-.04-.11-.01-.17-.07-.04-.19-.03-.16-.17-.16-.02-.26-.07-.19-.26.11-.31.36-.52.5-.82.02.07.04.14.06.22h0c.13.03.29-.11.38.08.03-.04.04-.14.12-.08.08.06.04.13-.02.19.11.17-.17.19-.13.33,0,0,0,0,0,0,.16.03.27.11.38.21,0-.04.02-.07.06-.1.05-.04.12,0,.14.06.02.03.02.05.02.08.02-.07.03-.15.09-.18-.11-.1-.16-.25-.23-.37-.05-.09.12-.21.26-.06.03,0,.06,0,.09,0-.07-.37.24-.41.44-.57.12-.1-.06-.34-.06-.51,0-.25.43.12.4-.24,0-.01.03-.03.06-.05,0,.28.33.41.28.7.14.09-.02.25.08.35,0,0,0,.02,0,.03.02,0,.03-.02.05,0,.09.04.11.12.11.2,0-.01.01-.03.02-.04-.06-.22.23-.38.21-.44-.26-.69.25-.11.36-.24-.07-.21.03-.35.16-.48v-.23c-.04-.07-.03-.17-.04-.25-.05-.11-.19-.22,0-.33.02-.01.02-.02.03-.03v-.07s-.05-.04-.05-.07c-.05-.06-.11-.12-.16-.18-.15-.15-.15-.34-.15-.52-.02-.1.04-.18.08-.26-.12-.11-.13.02-.18.08-.09-.02-.21.06-.31-.11.14,0,.24-.06.31-.15-.02-.13-.21-.14-.21-.28.1-.13.37.03.39-.23h0c-.07-.02-.2.04-.19-.09,0-.11.02-.23.18-.25.1-.01.22.01.31-.06v-.05c-.14-.04-.08-.14-.04-.24ZM5.11,0c-.15.11-.35.15-.53.22-.11-.1-.33-.04-.39-.22h.92ZM3.89,0s.04.06.05.1c.04.14.02.29-.05.41.11.03.11.16.11.29,0,.01,0,.03,0,.04,0,0,0,0,0,0h0c.3-.2.61.1.91,0,.41-.14.72.02,1.03.26.21.16.24.32.15.55-.1.24-.28.27-.49.2-.16-.05-.3-.17-.48-.15-.19.06-.36.07-.43-.17q-.57-.2-.69-.69s0,0,0,0h0c-.19.12-.32.04-.39-.14-.02.01-.03.02-.05.04,0,0,0,0,0,0-.45.03-.43-.34-.47-.6,0-.04,0-.09-.01-.13h.82ZM3.21,1.17c-.11-.17.05-.16.13-.17.16-.01.26.06.25.24.02.02.03.04.05.06.1.11.09.22-.01.32-.09.11-.16.3-.35.18-.15-.09-.15-.23-.03-.36-.2-.06-.19-.16-.04-.28ZM.36,16.99c.02.13.21.14.21.28-.1.13-.37-.03-.39.23h0c.07.02.2-.04.19.09,0,.11-.02.23-.18.25-.06,0-.13,0-.2,0v-1.94s.07.08.11.12c.15.15.15.34.15.52.02.1-.04.18-.08.26.12.11.13-.02.18-.08.09.02.21-.06.31.11-.14,0-.24.06-.31.15ZM.92,18.44s-.07-.03-.12-.05c.04-.04.06-.08.09-.08.03,0,.09,0,.1.03.03.06-.01.1-.07.1ZM4.58,24.05c-.06,0-.14.02-.18,0-.06-.04-.01-.09.04-.1.05-.01.11-.07.16,0,.01.02-.01.06-.02.11ZM5.01,23.91s-.01-.07,0-.1c.01-.02.06-.02.09-.02,0,.03,0,.07.01.12-.04,0-.07,0-.1,0ZM6.29,24.2c.03.45-.34.43-.6.47-.18.03-.5.03-.46-.25.03-.23.16-.54.43-.61.25-.06.52,0,.59.32.01.02.03.04.04.06,0,0,0,0,0,0ZM6.06,10.95c-.06.02-.12.03-.18.05-.04.03-.08.07-.12.1.01.16-.06.28-.19.38-.13.34-.37.23-.61.15-.1.07-.17.23-.33.1-.35.19-.74.21-1.12.28-.12.18-.38.2-.46.42-.05.05-.08.1-.06.17h0c.06-.02.11-.03.17-.05.06-.05.13-.1.2-.05.06.04.04.11.01.17.07.04.19.03.16.17.16.02.26.07.19.26-.11.31-.36.52-.5.82-.02-.07-.04-.14-.05-.22h0c-.13-.03-.29.11-.38-.08-.03.04-.04.14-.12.08-.08-.06-.04-.13.02-.19-.11-.17.17-.19.13-.33,0,0,0,0,0,0-.16-.03-.27-.11-.38-.21,0,.04-.02.07-.06.1-.05.04-.12,0-.14-.06-.02-.03-.02-.05-.02-.08-.02.07-.03.15-.09.18.11.1.16.25.23.37.05.09-.12.21-.26.06-.03,0-.06,0-.09,0,.07.37-.24.41-.44.57-.12.1.06.34.06.51,0,.25-.43-.12-.4.24,0,.01-.03.03-.06.05,0-.28-.33-.41-.28-.7-.14-.09.02-.25-.08-.35,0,0,0-.02,0-.03-.02,0-.03.02-.05,0-.09-.04-.11-.12-.11-.2,0,.01-.01.03-.02.04.06.22-.23.38-.21.44.26.69-.25.11-.36.24.05.14.01.25-.05.35V0h2.94c.03.17-.1.33-.13.49-.1.13-.36.21-.13.44.11-.09.21-.04.36-.01-.09.08-.15.13-.2.18-.04.11-.09.2-.18.27.01.36-.26.41-.52.48-.18.06-.29.17-.29.37.03.08.17.06.15.17.15.19-.1.61.36.62.04,0,.07,0,.11,0,.16-.21.3-.03.44.03.06-.01.12-.02.18-.04-.12-.14-.2-.29-.11-.47.06.17.23.31.15.51.11.17.21.35.08.55,0,.07,0,.15,0,.22.04.11.24.07.21.23-.02.11-.1.25-.06.33.26.5-.08.75-.39,1.03.04.23-.16.21-.29.26-.03.13.03.23.08.34,0,0,0,0,0,0,.02.05.04.1.06.16.24.29.36.65.56.97.11.13.09.29.09.44.02.14.33-.04.24.18-.08.22.09.26.17.38.13.04.15.17.19.26.09.17,0,.27-.22.3,0,0,0,0,0,0h0s-.04-.03-.06-.05c-.15.13-.41.21-.37.44.02.14.24.16.4.16.12,0,.12-.24.28-.15.11-.06.23-.18.28.06h0s.07.08.1.12c.05,0,.11-.02.14,0,.06.04,0,.08-.02.12.05.06.1.11.15.17.29.22.33-.25.56-.2l.43.13c.03.07,0,.12-.05.16.05.06.1.12.15.17.24-.01.14.29.32.34.07-.05.13-.08.2,0,.01.01,0,.06,0,.06-.05,0-.09,0-.14,0-.02-.02-.04-.04-.06-.07.04,0,.06.03.06.07-.02.03-.05.09-.04.09.36.38.35.43-.14.61ZM7.36,24.48c-.09.15-.23.15-.36.03-.06.2-.16.19-.28.04-.17.11-.16-.05-.17-.13-.01-.16.06-.26.24-.25.02-.02.04-.03.06-.05.11-.1.22-.09.32.01.11.09.3.16.18.35ZM15.82,2.33c-.06.03-.1-.01-.1-.07,0-.03.03-.07.05-.12.04.04.08.06.08.09,0,.03,0,.09-.03.1ZM23.94,26.97s-.08-.06-.08-.09c0-.03,0-.09.03-.1.06-.03.1.01.1.07,0,.03-.03.07-.05.12ZM32.92,4.94s-.04.03-.06.05c-.11.1-.22.09-.32-.01-.11-.09-.3-.16-.18-.35.09-.15.23-.15.36-.03.06-.2.16-.19.28-.04.17-.11.16.05.17.13.01.16-.06.26-.24.25ZM36.14,25.81c-.04.06-.09.01-.1-.04-.01-.05-.07-.11,0-.16.02-.01.06.01.11.02,0,.06.02.14,0,.18ZM36.23,23.04c.09-.11.16-.3.35-.18.15.09.15.23.03.36.2.06.19.16.04.28.11.17-.05.16-.13.17-.16.01-.26-.06-.26-.24-.02-.02-.03-.04-.05-.06-.1-.11-.09-.22.01-.32ZM36.24,23.97s.04-.03.06-.04c0,0,0,0,0,0,.45-.03.43.34.47.6.03.18.03.5-.25.46-.23-.03-.54-.16-.61-.43-.06-.25,0-.52.32-.59ZM36,25.1s0,.07,0,.1c-.03,0-.07.01-.1,0-.02-.01-.02-.06-.02-.09.03,0,.07,0,.12-.01ZM35.06,29.77c-.14.04-.67-.38-.62-.47.14-.28.43-.32.7-.42.13.12.43,0,.41.33-.02.31-.2.48-.48.55ZM33.63,27.47c.1-.24.28-.27.49-.2.16.05.3.17.48.15.19-.06.36-.07.43.17q.57.2.69.69s0,0,0,0c.2-.12.33-.04.4.15.03.09-.06.16-.15.18-.24.05-.25-.12-.25-.29,0-.01,0-.03,0-.04h0s0,0,0,0c-.3.2-.61-.1-.91,0-.41.14-.72-.02-1.03-.26-.21-.16-.24-.32-.15-.55ZM34.06,5.29c-.25.06-.52,0-.59-.32-.01-.02-.03-.04-.04-.06,0,0,0,0,0,0-.03-.44.34-.43.6-.47.18-.03.5-.03.46.25-.03.23-.16.54-.43.61ZM34.7,5.3s-.06.02-.09.02c0-.03,0-.07-.01-.12.04,0,.07,0,.1,0,0,.03.01.07,0,.1ZM35.28,5.17c-.05.01-.11.07-.16,0-.01-.02.01-.06.02-.11.06,0,.14-.02.18,0,.06.04.01.09-.04.1ZM38.98,6.36s-.09,0-.1-.03c-.03-.06.01-.1.07-.1.03,0,.07.03.12.05-.04.04-.06.08-.09.08Z" fill="#919191" stroke-width="0"/><path d="M39.98,8.88s.02.04,0,.07v.61s0,.04.02.05v-2.86s-.01,0-.02,0v2.12Z" fill="#919191" stroke-width="0"/><path d="M39.98,30.02h-1.72s.35,0,.35,0h1.39v-4.84h0v-15.41s-.01.01-.02.02v20.23Z" fill="#919191" stroke-width="0"/><path d="M39.98,0v6.71s.01,0,.02,0v-.85c-.03-.07-.03-.13,0-.18V0h-.02Z" fill="#919191" stroke-width="0"/><path d="M0,30.02H0s.08,0,.08,0h12.41s.06-.02.09,0h20.89s.01,0,.02,0h.4S0,30.02,0,30.02Z" fill="#919191" stroke-width="0"/></svg>