<?xml version="1.0" encoding="UTF-8"?>
<svg id="Layer_2" data-name="Layer 2" xmlns="http://www.w3.org/2000/svg" xmlns:xlink="http://www.w3.org/1999/xlink" viewBox="0 0 1671.15 855.93">
  <defs>
    <style>
      .cls-1 {
        fill: url(#linear-gradient-2);
      }

      .cls-2 {
        fill: url(#linear-gradient-3);
      }

      .cls-3 {
        fill: url(#linear-gradient);
      }

      .cls-4 {
        fill: url(#linear-gradient-4);
      }
    </style>
    <linearGradient id="linear-gradient" x1="489.55" y1="268.05" x2="1239.03" y2="700.75" gradientUnits="userSpaceOnUse">
      <stop offset="0" stop-color="#39ff63"/>
      <stop offset="1" stop-color="#3aefbd"/>
    </linearGradient>
    <linearGradient id="linear-gradient-2" x1="552.13" y1="42.12" x2="1055.55" y2="332.77" xlink:href="#linear-gradient"/>
    <linearGradient id="linear-gradient-3" x1=".04" y1="102.54" x2="400.72" y2="333.87" xlink:href="#linear-gradient"/>
    <linearGradient id="linear-gradient-4" x1="1303.83" y1="149.27" x2="1561.69" y2="298.15" xlink:href="#linear-gradient"/>
  </defs>
  <g id="Layer_1-2" data-name="Layer 1">
    <g>
      <path class="cls-3" d="m561.38,256.64l74.06,33.2c27.93,12.52,42.79,43.33,35.2,72.98l-22.48,87.87c-7.03,27.47,5.2,56.25,29.85,70.26l131.52,74.76c19.7,11.2,43.9,10.93,63.35-.7l124.6-74.49c24.98-14.93,36.45-45.05,27.73-72.82l-25.86-82.37c-9.9-31.53,6.29-65.34,37.06-77.4l91.68-35.92c34.08-13.35,72.31,5.1,83.06,40.09l83.58,272.01c8.86,28.85-4.01,59.92-30.68,74.05l-397.3,210.44c-18.54,9.82-40.75,9.75-59.22-.19l-383.11-206.01c-26.28-14.13-39.01-44.78-30.48-73.37l81.45-273c10.87-36.42,51.31-54.96,85.99-39.41Z"/>
      <path class="cls-1" d="m517.25,132.1l42.27-101.95c7.57-18.25,25.38-30.15,45.14-30.15h470.61c21.7,0,40.8,14.31,46.9,35.14l29.53,100.88c6.88,23.5-4.7,48.47-27.09,58.4l-156.28,69.29c-19.86,8.81-31.52,29.67-28.62,51.2l17.1,126.84c2.41,17.86-5.21,35.6-19.83,46.15l-72.99,52.68c-16.51,11.91-38.67,12.35-55.63,1.09l-78.7-52.26c-16.9-11.22-25.11-31.72-20.63-51.51l26.67-117.69c5.24-23.14-6.89-46.7-28.78-55.87l-163.42-68.45c-24.83-10.4-36.57-38.92-26.26-63.79Z"/>
      <path class="cls-2" d="m352.72,416.15l50.83-197.67c1.52-5.93-1.94-11.99-7.82-13.69L14.51,94.67c-11.44-3.3-19.56,11.03-10.85,19.15l330.39,307.8c6.28,5.85,16.53,2.85,18.67-5.46Z"/>
      <path class="cls-4" d="m1318.43,416.15l-50.83-197.67c-1.52-5.93,1.94-11.99,7.82-13.69l381.22-110.13c11.44-3.3,19.56,11.03,10.85,19.15l-330.39,307.8c-6.28,5.85-16.53,2.85-18.67-5.46Z"/>
    </g>
  </g>
</svg>