<?xml version="1.0" encoding="UTF-8"?><svg id="Layer_2" xmlns="http://www.w3.org/2000/svg" viewBox="0 0 223.57 199.78"><g id="Layer_1-2"><path d="M52.84,195.62l-2.53-1.61c-.32-.9-.53-1.86-.97-2.7-16.04-30.69-32.06-61.4-48.22-92.02-1.52-2.87-1.52-4.95.24-7.7C20.06,62.29,38.68,32.94,57.21,3.53c1.74-2.76,3.61-3.67,6.87-3.51,19.53.96,39.07,1.73,58.61,2.48,16.02.61,32.03,1.11,48.05,1.65.84.54,1.69,1.07,2.53,1.61.63,1.48,1.17,3.02,1.92,4.45,15.73,30.12,31.43,60.24,47.29,90.29,1.52,2.88,1.5,4.95-.25,7.7-18.71,29.29-37.33,58.65-55.85,88.06-1.74,2.77-3.63,3.68-6.87,3.51-16.55-.85-33.11-1.49-49.67-2.12-18.99-.72-37.99-1.35-56.98-2.02ZM48.97,155.46c2.46.06,3.7,2.29,3.98,4.96.79,7.61,1.97,15.19,2.62,22.81.31,3.68.96,4.76,4.96,3.35,14.11-5,28.39-9.56,42.59-14.31,10.35-3.46,20.68-6.96,31.55-10.62-29.6-18.78-58.59-37.16-88.19-55.93,1.48,12.49,2.87,24.33,4.28,36.17.29,2.47.98,5.05-1.99,6.53-3.76.17-4.14-2.49-4.46-5.27-1.46-12.53-2.93-25.07-4.46-37.59-.18-1.49.43-3.63-2.1-3.84-9.55-.79-19.1-1.53-29.23-2.34,12.82,24.5,25.29,48.35,38.42,73.44.01-4.9-.18-8.26-.52-11.6-.25-2.52-.52-5.91,2.55-5.77ZM169.08,61.3c2.05-2.53,3.67-.92,5.42.59,3.64,3.15,7.38,6.16,11.09,9.23,7.56,6.25,15.11,12.5,22.67,18.75l.85-.74c-12.89-24.62-25.77-49.25-39-74.52-4.8,7.57-8.98,14.16-13.16,20.75-5.06,7.97-5.02,7.93,2.53,13.95,2.25,1.8,6.36,4.2,3.98,7.18-3.51,4.34-7.59-1.25-12.88-4.98-1.42,34.4-2.85,68.9-4.31,104.26,22.95-16.95,44.94-33.24,66.99-49.42,2.94-2.15.98-3.03-.59-4.34-13.79-11.48-27.54-23.01-41.38-34.43-2.15-1.77-4.48-3.66-2.21-6.28ZM139.71,156.34c1.5-35.94,2.97-71.19,4.46-107.11-31.92,16.7-63.2,33.06-94.99,49.69,30.32,19.23,60.05,38.09,90.53,57.42ZM139.77,44.19c-.75-.64-.97-.93-1.26-1.06-24.05-11.28-48.11-22.53-72.14-33.84-2.75-1.3-2.99.33-3.39,2.36-1.83,9.44-3.77,18.87-5.64,28.3-3.43,17.32-6.84,34.65-10.43,52.82,31.27-16.36,61.81-32.33,92.85-48.57ZM164.42,11.01c-28.9-1.21-56.83-2.37-84.75-3.54,6.14,3.37,10.89,6.03,16.5,8.64,15.81,7.35,31.65,14.63,47.41,22.07,2.08.98,3.13.88,4.38-1.12,5.25-8.48,10.64-16.87,16.47-26.05ZM8.52,92.77c9.75.81,18.64,1.44,27.51,2.36,2.94.3,3.99-.52,4.55-3.47,4.25-22.16,8.69-44.27,13.06-66.41.21-1.05.95-2.15-.23-3.26-14.82,23.36-29.59,46.64-44.89,70.77ZM162.49,190.31c15.28-24.09,30.06-47.4,44.85-70.71-19.91,13.83-39.31,28.18-58.73,42.49-1.15.85-1.47,1.55-.73,2.84,4.8,8.27,9.55,16.58,14.61,25.38ZM74.22,188.77c.09.38.19.76.28,1.15,27.15,1.13,54.3,2.26,82.19,3.42-5.02-8.74-9.74-16.72-14.19-24.84-1.32-2.41-2.74-1.66-4.5-1.07-21.26,7.13-42.53,14.23-63.79,21.35Z" fill="#070304" stroke-width="0"/><path d="M139.71,156.34c-30.48-19.33-60.21-38.19-90.53-57.42,31.79-16.63,63.07-32.99,94.99-49.69-1.5,35.92-2.97,71.18-4.46,107.11Z" fill="#46f499" stroke-width="0"/><path d="M169.08,61.3c-1.41,2.85.05,4.51,2.21,6.28,13.84,11.42,27.59,22.95,41.38,34.43,1.57,1.31,3.53,2.18.59,4.34-22.06,16.18-44.04,32.47-66.99,49.42,1.46-35.36,2.89-69.86,4.31-104.26,3.78,2.2,9.84,9.18,12.88,4.98,1.77,1.72,3.3,3.73,5.62,4.81Z" fill="#64f5ab" stroke-width="0"/><path d="M139.77,44.19c-31.05,16.24-61.59,32.22-92.85,48.57,3.59-18.17,7-35.5,10.43-52.82,1.87-9.44,3.8-18.86,5.64-28.3.39-2.03.63-3.65,3.39-2.36,24.03,11.31,48.09,22.56,72.14,33.84.29.14.51.42,1.26,1.06Z" fill="#2df19b" stroke-width="0"/><path d="M48.78,148.42c2.97-1.47,2.29-4.05,1.99-6.53-1.41-11.84-2.8-23.69-4.28-36.17,29.6,18.77,58.58,37.16,88.19,55.93-10.87,3.66-21.21,7.16-31.55,10.62-14.2,4.75-28.48,9.31-42.59,14.31-4,1.42-4.65.33-4.96-3.35-.65-7.62-1.83-15.2-2.62-22.81-.28-2.66-1.42-4.82-3.98-4.96.42-2.36-1.58-4.65-.2-7.04Z" fill="#2df39c" stroke-width="0"/><path d="M169.08,61.3c-2.31-1.09-3.85-3.09-5.62-4.81,1.23-3.8-1.73-5.38-3.98-7.18-7.56-6.02-7.59-5.98-2.53-13.95,4.18-6.59,8.36-13.18,13.16-20.75,13.23,25.27,26.11,49.9,39,74.52l-.85.74c-7.56-6.25-15.12-12.5-22.67-18.75-3.71-3.07-7.45-6.08-11.09-9.23-1.75-1.52-3.46-1.75-5.42-.59Z" fill="#97f4cf" stroke-width="0"/><path d="M164.42,11.01c-5.82,9.18-11.22,17.57-16.47,26.05-1.24,2-2.3,2.1-4.38,1.12-15.77-7.44-31.61-14.72-47.41-22.07-5.61-2.61-11.19-5.27-16.5-8.64,27.93,1.17,55.85,2.33,84.75,3.54Z" fill="#46f499" stroke-width="0"/><path d="M8.52,92.77c15.3-24.13,30.07-47.41,44.89-70.77,1.18,1.11.44,2.22.23,3.26-4.37,22.13-8.81,44.25-13.06,66.41-.56,2.94-1.61,3.77-4.55,3.47-8.87-.92-17.76-1.55-27.51-2.36Z" fill="#46f299" stroke-width="0"/><path d="M162.49,190.31c-5.06-8.8-9.82-17.1-14.61-25.38-.74-1.28-.43-1.99.73-2.84,19.43-14.31,38.82-28.66,58.73-42.49-14.78,23.31-29.57,46.62-44.85,70.71Z" fill="#96f2cf" stroke-width="0"/><path d="M48.78,148.42c.3,2.84.4,4.74.2,7.04-3.01-.18-2.8,3.26-2.55,5.77.33,3.34.7,6.5.52,11.6-13.13-25.1-25.6-48.94-38.42-73.44,10.13.81,19.68,1.55,29.23,2.34,2.53.21,1.91,2.35,2.1,3.84,1.53,12.52,3,25.06,4.46,37.59.32,2.78.7,5.44,4.46,5.27Z" fill="#2bcf85" stroke-width="0"/><path d="M74.22,188.77c21.26-7.11,42.53-14.22,63.79-21.35,1.76-.59,3.18-1.35,4.5,1.07,4.45,8.12,9.17,16.1,14.19,24.84-27.9-1.16-55.05-2.29-82.19-3.42-.09-.38-.19-.76-.28-1.15Z" fill="#63f3aa" stroke-width="0"/></g></svg>